<svg width="137" height="19" viewBox="0 0 137 19" fill="none" xmlns="http://www.w3.org/2000/svg">
<path d="M5.68111 18.5395V3.55972H0.187378V0.460457H14.7296V3.55972H9.23587V18.5395H5.68111Z" fill="white"/>
<path d="M17.1691 18.5395V0.460457H25.3558C26.5407 0.460457 27.573 0.658466 28.4528 1.05448C29.3325 1.4505 30.0147 2.01009 30.4994 2.73325C30.9842 3.45641 31.2265 4.30871 31.2265 5.29014V5.60007C31.2265 6.68481 30.9572 7.56294 30.4186 8.23444C29.88 8.90595 29.2158 9.39667 28.4258 9.70659V10.1715C29.144 10.2059 29.7005 10.447 30.0955 10.8946C30.4905 11.3251 30.6879 11.9019 30.6879 12.6251V18.5395H27.1332V13.1158C27.1332 12.7025 27.0165 12.3668 26.7831 12.1085C26.5676 11.8503 26.1996 11.7211 25.679 11.7211H20.7238V18.5395H17.1691ZM20.7238 8.62185H24.9788C25.8226 8.62185 26.4779 8.40662 26.9447 7.97617C27.4294 7.5285 27.6718 6.94308 27.6718 6.21992V5.96165C27.6718 5.23849 27.4384 4.66168 26.9716 4.23123C26.5048 3.78356 25.8405 3.55972 24.9788 3.55972H20.7238V8.62185Z" fill="white"/>
<path d="M32.9105 18.5395L37.8656 0.460457H44.0595L49.0147 18.5395H45.3522L44.3288 14.5621H37.5963L36.573 18.5395H32.9105ZM38.4312 11.4112H43.494L41.2049 2.60411H40.7202L38.4312 11.4112Z" fill="white"/>
<path d="M58.2954 18.9011C55.9615 18.9011 54.1123 18.2812 52.7478 17.0415C51.3834 15.7846 50.7011 13.9939 50.7011 11.6695V7.33049C50.7011 5.00604 51.3834 3.22397 52.7478 1.98426C54.1123 0.727339 55.9615 0.098877 58.2954 0.098877C60.6114 0.098877 62.3977 0.71012 63.6545 1.93261C64.9292 3.13788 65.5665 4.79943 65.5665 6.91726V7.07222H62.0656V6.81395C62.0656 5.74642 61.7514 4.8683 61.1231 4.17957C60.5126 3.49085 59.5701 3.14649 58.2954 3.14649C57.0387 3.14649 56.0512 3.51668 55.3331 4.25706C54.615 4.99743 54.2559 6.0047 54.2559 7.27884V11.7211C54.2559 12.978 54.615 13.9853 55.3331 14.7429C56.0512 15.4833 57.0387 15.8535 58.2954 15.8535C59.5701 15.8535 60.5126 15.5091 61.1231 14.8204C61.7514 14.1144 62.0656 13.2363 62.0656 12.186V11.7211H65.5665V12.0827C65.5665 14.2005 64.9292 15.8707 63.6545 17.0932C62.3977 18.2984 60.6114 18.9011 58.2954 18.9011Z" fill="white"/>
<path d="M68.4817 18.5395V0.460457H72.0364V7.64042H72.5212L78.6343 0.460457H83.1855L75.3219 9.37084L83.4548 18.5395H78.7689L72.5212 11.2046H72.0364V18.5395H68.4817Z" fill="white"/>
<path d="M85.358 18.5395V0.460457H88.9127V18.5395H85.358Z" fill="white"/>
<path d="M91.9387 18.5395V14.2005L101.257 3.9213V3.50807H92.208V0.460457H104.973V4.79943L95.6551 15.0787V15.4919H105.027V18.5395H91.9387Z" fill="white"/>
<path d="M108.012 18.5395V0.460457H120.131V3.55972H111.567V7.87286H119.377V10.9721H111.567V15.4402H120.292V18.5395H108.012Z" fill="white"/>
<path d="M122.943 18.5395V0.460457H131.129C132.314 0.460457 133.347 0.658466 134.226 1.05448C135.106 1.4505 135.788 2.01009 136.273 2.73325C136.758 3.45641 137 4.30871 137 5.29014V5.60007C137 6.68481 136.731 7.56294 136.192 8.23444C135.654 8.90595 134.989 9.39667 134.199 9.70659V10.1715C134.917 10.2059 135.474 10.447 135.869 10.8946C136.264 11.3251 136.461 11.9019 136.461 12.6251V18.5395H132.907V13.1158C132.907 12.7025 132.79 12.3668 132.557 12.1085C132.341 11.8503 131.973 11.7211 131.452 11.7211H126.497V18.5395H122.943ZM126.497 8.62185H130.752C131.596 8.62185 132.251 8.40662 132.718 7.97617C133.203 7.5285 133.445 6.94308 133.445 6.21992V5.96165C133.445 5.23849 133.212 4.66168 132.745 4.23123C132.278 3.78356 131.614 3.55972 130.752 3.55972H126.497V8.62185Z" fill="white"/>
</svg>
